# xmcd
#
# Track frame offsets: 
#        150
#        8991
#        31103
#        46680
#        62788
#        76828
#        90179
#        107666
#        122126
#        138513
#        160943
#        174930
#        189581
#
# Disc length: 2678 seconds
#
# Revision: 0
# Processed by: cddbd v1.5.1PL0 Copyright (c) Steve Scherf et al.
# Submitted via: ExactAudioCopy v0.95a5
#
DISCID=950a740d
DTITLE=Kevin McKendree - Hammers and Strings
DYEAR=2004
DGENRE=Blues
TTITLE0=Boogie #427
TTITLE1=Sixty Sharp Knives
TTITLE2=Let's Go Get Stoned
TTITLE3=Mr. Boo
TTITLE4=Henry's Dead
TTITLE5=Think For Yourself
TTITLE6=Gone Awry
TTITLE7=Just Before Sunrise
TTITLE8=The Fuss Bird
TTITLE9=From Way Behind
TTITLE10=Funky Kayjay
TTITLE11=Fool's Paradise
TTITLE12=Canción
EXTD=
EXTT0=
EXTT1=
EXTT2=
EXTT3=
EXTT4=
EXTT5=
EXTT6=
EXTT7=
EXTT8=
EXTT9=
EXTT10=
EXTT11=
EXTT12=
PLAYORDER=
